<mxfile host="app.diagrams.net" modified="2022-07-04T17:08:52.867Z" agent="5.0 (Windows NT 10.0; Win64; x64) AppleWebKit/537.36 (KHTML, like Gecko) Chrome/103.0.0.0 Safari/537.36" etag="0UY-dR9jYRwEGmI3Nk5d" version="20.0.4" type="github">
  <diagram id="QB6jL5C5Ag8ClhFZlGGN" name="Page-1">
    <mxGraphModel dx="1422" dy="794" grid="1" gridSize="10" guides="1" tooltips="1" connect="1" arrows="1" fold="1" page="1" pageScale="1" pageWidth="827" pageHeight="1169" math="0" shadow="0">
      <root>
        <mxCell id="0" />
        <mxCell id="1" parent="0" />
        <mxCell id="4cwQ66W66YWw1RuQxmPg-1" value="Animals" style="swimlane;fontStyle=1;align=center;verticalAlign=top;childLayout=stackLayout;horizontal=1;startSize=26;horizontalStack=0;resizeParent=1;resizeParentMax=0;resizeLast=0;collapsible=1;marginBottom=0;" vertex="1" parent="1">
          <mxGeometry x="334" y="60" width="160" height="140" as="geometry" />
        </mxCell>
        <mxCell id="4cwQ66W66YWw1RuQxmPg-2" value="+ name: String&#xa;+ age : int&#xa;+weight : int" style="text;strokeColor=none;fillColor=none;align=left;verticalAlign=top;spacingLeft=4;spacingRight=4;overflow=hidden;rotatable=0;points=[[0,0.5],[1,0.5]];portConstraint=eastwest;" vertex="1" parent="4cwQ66W66YWw1RuQxmPg-1">
          <mxGeometry y="26" width="160" height="54" as="geometry" />
        </mxCell>
        <mxCell id="4cwQ66W66YWw1RuQxmPg-3" value="" style="line;strokeWidth=1;fillColor=none;align=left;verticalAlign=middle;spacingTop=-1;spacingLeft=3;spacingRight=3;rotatable=0;labelPosition=right;points=[];portConstraint=eastwest;" vertex="1" parent="4cwQ66W66YWw1RuQxmPg-1">
          <mxGeometry y="80" width="160" height="8" as="geometry" />
        </mxCell>
        <mxCell id="4cwQ66W66YWw1RuQxmPg-4" value="+ getDosage()&#xa;+getFeedSchedule()" style="text;strokeColor=none;fillColor=none;align=left;verticalAlign=top;spacingLeft=4;spacingRight=4;overflow=hidden;rotatable=0;points=[[0,0.5],[1,0.5]];portConstraint=eastwest;" vertex="1" parent="4cwQ66W66YWw1RuQxmPg-1">
          <mxGeometry y="88" width="160" height="52" as="geometry" />
        </mxCell>
        <mxCell id="4cwQ66W66YWw1RuQxmPg-5" style="edgeStyle=orthogonalEdgeStyle;rounded=0;orthogonalLoop=1;jettySize=auto;html=1;exitX=1;exitY=0.5;exitDx=0;exitDy=0;" edge="1" parent="4cwQ66W66YWw1RuQxmPg-1" source="4cwQ66W66YWw1RuQxmPg-4" target="4cwQ66W66YWw1RuQxmPg-4">
          <mxGeometry relative="1" as="geometry" />
        </mxCell>
        <mxCell id="4cwQ66W66YWw1RuQxmPg-6" value="Equidae" style="swimlane;fontStyle=1;align=center;verticalAlign=top;childLayout=stackLayout;horizontal=1;startSize=26;horizontalStack=0;resizeParent=1;resizeParentMax=0;resizeLast=0;collapsible=1;marginBottom=0;" vertex="1" parent="1">
          <mxGeometry x="40" y="320" width="150" height="78" as="geometry">
            <mxRectangle x="40" y="320" width="90" height="30" as="alternateBounds" />
          </mxGeometry>
        </mxCell>
        <mxCell id="4cwQ66W66YWw1RuQxmPg-9" value="+ getDosage()&#xa;+getFeedSchedule()" style="text;strokeColor=none;fillColor=none;align=left;verticalAlign=top;spacingLeft=4;spacingRight=4;overflow=hidden;rotatable=0;points=[[0,0.5],[1,0.5]];portConstraint=eastwest;" vertex="1" parent="4cwQ66W66YWw1RuQxmPg-6">
          <mxGeometry y="26" width="150" height="52" as="geometry" />
        </mxCell>
        <mxCell id="4cwQ66W66YWw1RuQxmPg-18" value="Extends" style="endArrow=block;endSize=16;endFill=0;html=1;rounded=0;" edge="1" parent="1">
          <mxGeometry x="-0.1429" width="160" relative="1" as="geometry">
            <mxPoint x="410" y="280" as="sourcePoint" />
            <mxPoint x="410" y="200" as="targetPoint" />
            <mxPoint as="offset" />
          </mxGeometry>
        </mxCell>
        <mxCell id="4cwQ66W66YWw1RuQxmPg-20" value="" style="endArrow=none;html=1;rounded=0;" edge="1" parent="1">
          <mxGeometry width="50" height="50" relative="1" as="geometry">
            <mxPoint x="120" y="320" as="sourcePoint" />
            <mxPoint x="410" y="280" as="targetPoint" />
            <Array as="points">
              <mxPoint x="120" y="280" />
            </Array>
          </mxGeometry>
        </mxCell>
        <mxCell id="4cwQ66W66YWw1RuQxmPg-21" value="" style="endArrow=none;html=1;rounded=0;" edge="1" parent="1">
          <mxGeometry width="50" height="50" relative="1" as="geometry">
            <mxPoint x="410" y="320" as="sourcePoint" />
            <mxPoint x="410" y="280" as="targetPoint" />
          </mxGeometry>
        </mxCell>
        <mxCell id="4cwQ66W66YWw1RuQxmPg-22" value="" style="endArrow=none;html=1;rounded=0;" edge="1" parent="1">
          <mxGeometry width="50" height="50" relative="1" as="geometry">
            <mxPoint x="410" y="280" as="sourcePoint" />
            <mxPoint x="640" y="280" as="targetPoint" />
          </mxGeometry>
        </mxCell>
        <mxCell id="4cwQ66W66YWw1RuQxmPg-23" value="Felines" style="swimlane;fontStyle=1;align=center;verticalAlign=top;childLayout=stackLayout;horizontal=1;startSize=26;horizontalStack=0;resizeParent=1;resizeParentMax=0;resizeLast=0;collapsible=1;marginBottom=0;" vertex="1" parent="1">
          <mxGeometry x="334" y="320" width="150" height="78" as="geometry" />
        </mxCell>
        <mxCell id="4cwQ66W66YWw1RuQxmPg-26" value="+ getDosage()&#xa;+getFeedSchedule()" style="text;strokeColor=none;fillColor=none;align=left;verticalAlign=top;spacingLeft=4;spacingRight=4;overflow=hidden;rotatable=0;points=[[0,0.5],[1,0.5]];portConstraint=eastwest;" vertex="1" parent="4cwQ66W66YWw1RuQxmPg-23">
          <mxGeometry y="26" width="150" height="52" as="geometry" />
        </mxCell>
        <mxCell id="4cwQ66W66YWw1RuQxmPg-27" value="Eutheria" style="swimlane;fontStyle=1;align=center;verticalAlign=top;childLayout=stackLayout;horizontal=1;startSize=26;horizontalStack=0;resizeParent=1;resizeParentMax=0;resizeLast=0;collapsible=1;marginBottom=0;" vertex="1" parent="1">
          <mxGeometry x="600" y="320" width="150" height="78" as="geometry" />
        </mxCell>
        <mxCell id="4cwQ66W66YWw1RuQxmPg-30" value="+ getDosage()&#xa;+getFeedSchedule()" style="text;strokeColor=none;fillColor=none;align=left;verticalAlign=top;spacingLeft=4;spacingRight=4;overflow=hidden;rotatable=0;points=[[0,0.5],[1,0.5]];portConstraint=eastwest;" vertex="1" parent="4cwQ66W66YWw1RuQxmPg-27">
          <mxGeometry y="26" width="150" height="52" as="geometry" />
        </mxCell>
        <mxCell id="4cwQ66W66YWw1RuQxmPg-31" value="" style="endArrow=none;html=1;rounded=0;" edge="1" parent="1">
          <mxGeometry width="50" height="50" relative="1" as="geometry">
            <mxPoint x="680" y="320" as="sourcePoint" />
            <mxPoint x="640" y="280" as="targetPoint" />
            <Array as="points">
              <mxPoint x="680" y="280" />
            </Array>
          </mxGeometry>
        </mxCell>
        <mxCell id="4cwQ66W66YWw1RuQxmPg-32" value="Horses" style="swimlane;fontStyle=1;align=center;verticalAlign=top;childLayout=stackLayout;horizontal=1;startSize=26;horizontalStack=0;resizeParent=1;resizeParentMax=0;resizeLast=0;collapsible=1;marginBottom=0;" vertex="1" parent="1">
          <mxGeometry x="20" y="480" width="120" height="78" as="geometry">
            <mxRectangle x="40" y="320" width="90" height="30" as="alternateBounds" />
          </mxGeometry>
        </mxCell>
        <mxCell id="4cwQ66W66YWw1RuQxmPg-33" value="+ getDosage()&#xa;+getFeedSchedule()" style="text;strokeColor=none;fillColor=none;align=left;verticalAlign=top;spacingLeft=4;spacingRight=4;overflow=hidden;rotatable=0;points=[[0,0.5],[1,0.5]];portConstraint=eastwest;" vertex="1" parent="4cwQ66W66YWw1RuQxmPg-32">
          <mxGeometry y="26" width="120" height="52" as="geometry" />
        </mxCell>
        <mxCell id="4cwQ66W66YWw1RuQxmPg-35" value="Zebras" style="swimlane;fontStyle=1;align=center;verticalAlign=top;childLayout=stackLayout;horizontal=1;startSize=26;horizontalStack=0;resizeParent=1;resizeParentMax=0;resizeLast=0;collapsible=1;marginBottom=0;" vertex="1" parent="1">
          <mxGeometry x="160" y="480" width="120" height="78" as="geometry">
            <mxRectangle x="40" y="320" width="90" height="30" as="alternateBounds" />
          </mxGeometry>
        </mxCell>
        <mxCell id="4cwQ66W66YWw1RuQxmPg-36" value="+ getDosage()&#xa;+getFeedSchedule()" style="text;strokeColor=none;fillColor=none;align=left;verticalAlign=top;spacingLeft=4;spacingRight=4;overflow=hidden;rotatable=0;points=[[0,0.5],[1,0.5]];portConstraint=eastwest;" vertex="1" parent="4cwQ66W66YWw1RuQxmPg-35">
          <mxGeometry y="26" width="120" height="52" as="geometry" />
        </mxCell>
        <mxCell id="4cwQ66W66YWw1RuQxmPg-37" value="Lions" style="swimlane;fontStyle=1;align=center;verticalAlign=top;childLayout=stackLayout;horizontal=1;startSize=26;horizontalStack=0;resizeParent=1;resizeParentMax=0;resizeLast=0;collapsible=1;marginBottom=0;" vertex="1" parent="1">
          <mxGeometry x="300" y="480" width="120" height="78" as="geometry">
            <mxRectangle x="40" y="320" width="90" height="30" as="alternateBounds" />
          </mxGeometry>
        </mxCell>
        <mxCell id="4cwQ66W66YWw1RuQxmPg-38" value="+ getDosage()&#xa;+getFeedSchedule()" style="text;strokeColor=none;fillColor=none;align=left;verticalAlign=top;spacingLeft=4;spacingRight=4;overflow=hidden;rotatable=0;points=[[0,0.5],[1,0.5]];portConstraint=eastwest;" vertex="1" parent="4cwQ66W66YWw1RuQxmPg-37">
          <mxGeometry y="26" width="120" height="52" as="geometry" />
        </mxCell>
        <mxCell id="4cwQ66W66YWw1RuQxmPg-39" value="Tigers" style="swimlane;fontStyle=1;align=center;verticalAlign=top;childLayout=stackLayout;horizontal=1;startSize=26;horizontalStack=0;resizeParent=1;resizeParentMax=0;resizeLast=0;collapsible=1;marginBottom=0;" vertex="1" parent="1">
          <mxGeometry x="440" y="480" width="120" height="78" as="geometry">
            <mxRectangle x="40" y="320" width="90" height="30" as="alternateBounds" />
          </mxGeometry>
        </mxCell>
        <mxCell id="4cwQ66W66YWw1RuQxmPg-40" value="+ getDosage()&#xa;+getFeedSchedule()" style="text;strokeColor=none;fillColor=none;align=left;verticalAlign=top;spacingLeft=4;spacingRight=4;overflow=hidden;rotatable=0;points=[[0,0.5],[1,0.5]];portConstraint=eastwest;" vertex="1" parent="4cwQ66W66YWw1RuQxmPg-39">
          <mxGeometry y="26" width="120" height="52" as="geometry" />
        </mxCell>
        <mxCell id="4cwQ66W66YWw1RuQxmPg-41" value="Rats" style="swimlane;fontStyle=1;align=center;verticalAlign=top;childLayout=stackLayout;horizontal=1;startSize=26;horizontalStack=0;resizeParent=1;resizeParentMax=0;resizeLast=0;collapsible=1;marginBottom=0;" vertex="1" parent="1">
          <mxGeometry x="600" y="480" width="120" height="78" as="geometry">
            <mxRectangle x="40" y="320" width="90" height="30" as="alternateBounds" />
          </mxGeometry>
        </mxCell>
        <mxCell id="4cwQ66W66YWw1RuQxmPg-42" value="+ getDosage()&#xa;+getFeedSchedule()" style="text;strokeColor=none;fillColor=none;align=left;verticalAlign=top;spacingLeft=4;spacingRight=4;overflow=hidden;rotatable=0;points=[[0,0.5],[1,0.5]];portConstraint=eastwest;" vertex="1" parent="4cwQ66W66YWw1RuQxmPg-41">
          <mxGeometry y="26" width="120" height="52" as="geometry" />
        </mxCell>
        <mxCell id="4cwQ66W66YWw1RuQxmPg-43" value="Beavers" style="swimlane;fontStyle=1;align=center;verticalAlign=top;childLayout=stackLayout;horizontal=1;startSize=26;horizontalStack=0;resizeParent=1;resizeParentMax=0;resizeLast=0;collapsible=1;marginBottom=0;" vertex="1" parent="1">
          <mxGeometry x="750" y="480" width="120" height="78" as="geometry">
            <mxRectangle x="40" y="320" width="90" height="30" as="alternateBounds" />
          </mxGeometry>
        </mxCell>
        <mxCell id="4cwQ66W66YWw1RuQxmPg-44" value="+ getDosage()&#xa;+getFeedSchedule()" style="text;strokeColor=none;fillColor=none;align=left;verticalAlign=top;spacingLeft=4;spacingRight=4;overflow=hidden;rotatable=0;points=[[0,0.5],[1,0.5]];portConstraint=eastwest;" vertex="1" parent="4cwQ66W66YWw1RuQxmPg-43">
          <mxGeometry y="26" width="120" height="52" as="geometry" />
        </mxCell>
        <mxCell id="4cwQ66W66YWw1RuQxmPg-45" value="Extends" style="endArrow=block;endSize=16;endFill=0;html=1;rounded=0;" edge="1" parent="1">
          <mxGeometry x="-0.5" width="160" relative="1" as="geometry">
            <mxPoint x="400" y="460" as="sourcePoint" />
            <mxPoint x="400" y="400" as="targetPoint" />
            <Array as="points">
              <mxPoint x="400" y="420" />
            </Array>
            <mxPoint as="offset" />
          </mxGeometry>
        </mxCell>
        <mxCell id="4cwQ66W66YWw1RuQxmPg-57" value="Extends" style="endArrow=block;endSize=16;endFill=0;html=1;rounded=0;" edge="1" parent="1">
          <mxGeometry x="-0.5" width="160" relative="1" as="geometry">
            <mxPoint x="120" y="460" as="sourcePoint" />
            <mxPoint x="120" y="398" as="targetPoint" />
            <Array as="points">
              <mxPoint x="120" y="418" />
            </Array>
            <mxPoint as="offset" />
          </mxGeometry>
        </mxCell>
        <mxCell id="4cwQ66W66YWw1RuQxmPg-59" value="Extends" style="endArrow=block;endSize=16;endFill=0;html=1;rounded=0;" edge="1" parent="1">
          <mxGeometry x="-0.5" width="160" relative="1" as="geometry">
            <mxPoint x="680" y="460" as="sourcePoint" />
            <mxPoint x="680" y="398" as="targetPoint" />
            <Array as="points">
              <mxPoint x="680" y="418" />
            </Array>
            <mxPoint as="offset" />
          </mxGeometry>
        </mxCell>
        <mxCell id="4cwQ66W66YWw1RuQxmPg-60" value="" style="endArrow=none;html=1;rounded=0;" edge="1" parent="1">
          <mxGeometry width="50" height="50" relative="1" as="geometry">
            <mxPoint x="80" y="480" as="sourcePoint" />
            <mxPoint x="80" y="460" as="targetPoint" />
          </mxGeometry>
        </mxCell>
        <mxCell id="4cwQ66W66YWw1RuQxmPg-61" value="" style="endArrow=none;html=1;rounded=0;" edge="1" parent="1">
          <mxGeometry width="50" height="50" relative="1" as="geometry">
            <mxPoint x="80" y="460" as="sourcePoint" />
            <mxPoint x="220" y="460" as="targetPoint" />
          </mxGeometry>
        </mxCell>
        <mxCell id="4cwQ66W66YWw1RuQxmPg-63" value="" style="endArrow=none;html=1;rounded=0;" edge="1" parent="1">
          <mxGeometry width="50" height="50" relative="1" as="geometry">
            <mxPoint x="220" y="480" as="sourcePoint" />
            <mxPoint x="220" y="460" as="targetPoint" />
          </mxGeometry>
        </mxCell>
        <mxCell id="4cwQ66W66YWw1RuQxmPg-64" value="" style="endArrow=none;html=1;rounded=0;exitX=0.5;exitY=0;exitDx=0;exitDy=0;" edge="1" parent="1" source="4cwQ66W66YWw1RuQxmPg-37">
          <mxGeometry width="50" height="50" relative="1" as="geometry">
            <mxPoint x="300" y="460" as="sourcePoint" />
            <mxPoint x="500" y="460" as="targetPoint" />
            <Array as="points">
              <mxPoint x="360" y="460" />
            </Array>
          </mxGeometry>
        </mxCell>
        <mxCell id="4cwQ66W66YWw1RuQxmPg-66" value="" style="endArrow=none;html=1;rounded=0;" edge="1" parent="1">
          <mxGeometry width="50" height="50" relative="1" as="geometry">
            <mxPoint x="500" y="480" as="sourcePoint" />
            <mxPoint x="500" y="460" as="targetPoint" />
          </mxGeometry>
        </mxCell>
        <mxCell id="4cwQ66W66YWw1RuQxmPg-67" value="" style="endArrow=none;html=1;rounded=0;" edge="1" parent="1">
          <mxGeometry width="50" height="50" relative="1" as="geometry">
            <mxPoint x="640" y="480" as="sourcePoint" />
            <mxPoint x="640" y="460" as="targetPoint" />
          </mxGeometry>
        </mxCell>
        <mxCell id="4cwQ66W66YWw1RuQxmPg-68" value="" style="endArrow=none;html=1;rounded=0;" edge="1" parent="1">
          <mxGeometry width="50" height="50" relative="1" as="geometry">
            <mxPoint x="640" y="460" as="sourcePoint" />
            <mxPoint x="800" y="460" as="targetPoint" />
          </mxGeometry>
        </mxCell>
        <mxCell id="4cwQ66W66YWw1RuQxmPg-69" value="" style="endArrow=none;html=1;rounded=0;" edge="1" parent="1">
          <mxGeometry width="50" height="50" relative="1" as="geometry">
            <mxPoint x="800" y="480" as="sourcePoint" />
            <mxPoint x="800" y="460" as="targetPoint" />
          </mxGeometry>
        </mxCell>
      </root>
    </mxGraphModel>
  </diagram>
</mxfile>
